<?xml version="1.0" encoding="utf-8"?>
<!-- Generator: Adobe Illustrator 18.0.0, SVG Export Plug-In . SVG Version: 6.00 Build 0)  -->
<!DOCTYPE svg PUBLIC "-//W3C//DTD SVG 1.1//EN" "http://www.w3.org/Graphics/SVG/1.1/DTD/svg11.dtd">
<svg version="1.1" id="Layer_1" xmlns="http://www.w3.org/2000/svg" xmlns:xlink="http://www.w3.org/1999/xlink" x="0px" y="0px"
	 viewBox="0 0 130.4 129.6" enable-background="new 0 0 130.4 129.6" xml:space="preserve">
<g>
	<g>
		<defs>
			<polygon id="SVGID_1_" points="62,2 61.3,2.1 60.5,2 59.8,2.1 59.1,2.4 58.4,2.3 57.6,2.5 56.9,2.5 56.2,2.5 55.5,2.8 54.7,2.8 
				54,2.9 53.3,3.2 52.6,3 51.9,3.4 51.2,3.6 50.4,3.6 49.7,3.9 49,3.9 48.4,4.4 47.6,4.5 46.9,4.6 46.2,4.8 45.5,5.1 44.8,5.3 
				44.2,5.7 43.5,5.8 42.8,6.1 42.1,6.3 41.5,6.7 40.8,7 40,7 39.4,7.4 38.8,7.9 38.1,8.1 37.4,8.4 36.8,8.8 36.2,9.1 35.5,9.4 
				34.9,9.8 34.1,10 33.5,10.3 32.9,10.7 32.4,11.3 31.7,11.6 30.9,11.8 30.3,12.2 29.8,12.8 29.2,13.1 28.7,13.7 28,13.9 
				27.5,14.5 26.7,14.7 26.2,15.2 25.8,15.8 25.1,16.2 24.6,16.7 24.1,17.2 23.4,17.5 22.9,18.1 22.4,18.7 21.9,19.1 21.4,19.7 
				20.8,20.1 20.2,20.5 19.8,21.2 19.4,21.8 18.8,22.3 18.2,22.8 17.9,23.4 17.4,23.9 16.9,24.5 16.4,25 15.8,25.5 15.6,26.3 
				15.1,26.8 14.5,27.3 14.3,28 13.7,28.5 13.3,29.1 12.8,29.7 12.5,30.3 12,30.9 11.6,31.5 11.3,32.2 11.1,32.9 10.5,33.4 10.2,34 
				9.7,34.6 9.4,35.3 9,35.9 8.9,36.7 8.5,37.3 8.3,38 7.7,38.5 7.4,39.2 7.4,40 6.9,40.6 6.8,41.3 6.4,42 6.2,42.7 5.8,43.3 
				5.5,44 5.3,44.7 5.3,45.4 4.8,46.1 4.6,46.8 4.6,47.5 4.5,48.3 4.1,48.9 4,49.6 3.8,50.3 3.5,51 3.7,51.8 3.4,52.5 3.1,53.2 
				3.3,53.9 3.1,54.7 2.7,55.3 2.8,56.1 2.6,56.8 2.7,57.5 2.3,58.2 2.4,59 2.3,59.7 2.5,60.4 2.2,61.2 2.1,61.9 2.4,62.6 2.2,63.4 
				2.2,64.1 2.2,64.8 2,65.6 2.1,66.3 2,67 2.4,67.7 2.4,68.5 2.2,69.2 2.3,69.9 2.5,70.7 2.7,71.4 2.7,72.1 2.7,72.8 2.9,73.5 
				2.8,74.3 2.8,75 3.2,75.7 3.3,76.4 3.2,77.2 3.5,77.9 3.8,78.6 3.9,79.3 3.9,80.1 4.2,80.7 4.2,81.5 4.7,82.1 5,82.8 4.9,83.6 
				5.1,84.3 5.5,84.9 5.7,85.6 5.9,86.3 6,87.1 6.4,87.7 6.6,88.4 7.1,89 7.4,89.7 7.6,90.4 7.8,91.1 8.2,91.7 8.5,92.4 8.7,93.1 
				9,93.7 9.6,94.2 9.9,94.9 10.2,95.6 10.6,96.2 11,96.8 11.3,97.5 11.7,98.1 12,98.8 12.5,99.3 13,99.9 13.2,100.6 13.7,101.2 
				14.2,101.7 14.5,102.4 15.1,102.8 15.5,103.4 15.8,104.2 16.5,104.5 16.7,105.3 17.3,105.7 17.7,106.4 18.2,106.9 18.9,107.3 
				19.2,108 19.9,108.4 20.3,108.9 20.7,109.6 21.4,109.9 21.8,110.6 22.3,111.1 23,111.4 23.4,112 23.9,112.6 24.7,112.8 
				25.2,113.4 25.8,113.8 26.3,114.2 26.9,114.7 27.5,115.1 28.1,115.6 28.7,115.9 29.1,116.6 29.8,116.9 30.5,117.2 31,117.8 
				31.7,118 32.2,118.6 32.9,118.9 33.5,119.3 34.1,119.7 34.8,120 35.4,120.4 36.1,120.7 36.7,121 37.5,121.1 38,121.8 38.7,122 
				39.4,122.1 40.1,122.4 40.8,122.6 41.4,123.1 42,123.5 42.7,123.8 43.5,123.7 44.2,124 44.8,124.5 45.5,124.5 46.3,124.6 
				46.9,125.1 47.6,125.2 48.3,125.5 49,125.8 49.8,125.6 50.4,126.1 51.1,126.3 51.8,126.4 52.6,126.5 53.3,126.4 54.1,126.5 
				54.7,126.8 55.5,126.8 56.2,126.9 56.9,127.1 57.7,127.1 58.4,127.2 59.1,127.2 59.8,127.5 60.5,127.6 61.3,127.6 62,127.7 
				62.7,127.7 63.5,127.5 64.2,127.8 64.9,127.5 65.7,127.8 66.4,127.8 67.1,127.5 67.8,127.5 68.6,127.4 69.3,127.5 70,127.3 
				70.8,127.5 71.5,127.2 72.2,127.4 73,127.3 73.7,127.2 74.4,126.9 75.1,127 75.8,126.7 76.5,126.5 77.3,126.3 78,126.3 
				78.7,126.1 79.5,126.1 80.1,125.8 80.8,125.7 81.6,125.5 82.2,125.1 82.9,125 83.7,124.9 84.3,124.5 85.1,124.5 85.7,124.1 
				86.4,123.8 87,123.5 87.8,123.5 88.5,123.1 89.2,122.9 89.8,122.4 90.4,122.2 91.1,121.8 91.8,121.5 92.4,121.2 93.1,120.9 
				93.8,120.7 94.4,120.2 95.1,120 95.7,119.5 96.4,119.3 96.9,118.8 97.6,118.5 98.3,118.2 98.8,117.7 99.4,117.3 100.1,117 
				100.6,116.4 101.2,116 101.9,115.7 102.4,115.2 103,114.7 103.6,114.4 104.1,113.8 104.6,113.3 105.3,112.9 105.7,112.3 
				106.3,111.9 107.1,111.6 107.5,111.1 108,110.5 108.5,109.9 109.2,109.6 109.7,109.1 110.1,108.4 110.6,107.9 111.2,107.5 
				111.6,106.9 112.2,106.4 112.6,105.8 113.1,105.3 113.4,104.5 113.9,104 114.5,103.6 114.8,102.9 115.3,102.3 115.8,101.8 
				116.2,101.2 116.6,100.6 117.1,100 117.4,99.3 117.9,98.8 118.1,98.1 118.4,97.4 118.8,96.8 119.2,96.2 119.7,95.6 119.9,94.9 
				120.5,94.4 120.8,93.7 121.2,93.1 121.5,92.4 121.8,91.8 122.1,91.1 122.1,90.3 122.7,89.8 122.8,89 123,88.3 123.4,87.7 
				123.8,87 123.8,86.3 124.2,85.6 124.3,84.9 124.6,84.2 124.9,83.5 125.2,82.9 125.4,82.2 125.5,81.4 125.5,80.7 125.9,80 
				125.9,79.3 126.1,78.6 126.3,77.9 126.4,77.1 126.6,76.4 126.7,75.7 127,75 127,74.3 127.2,73.6 127.2,72.8 127.4,72.1 
				127.4,71.4 127.5,70.7 127.4,69.9 127.7,69.2 127.5,68.5 127.8,67.7 127.6,67 127.6,66.3 127.8,65.6 127.5,64.8 127.6,64.1 
				127.6,63.4 127.8,62.6 127.7,61.9 127.7,61.2 127.5,60.4 127.5,59.7 127.6,59 127.5,58.2 127.4,57.5 127.1,56.8 127.2,56.1 
				126.9,55.4 126.8,54.7 126.9,53.9 126.4,53.2 126.6,52.5 126.4,51.7 126.1,51.1 126.2,50.3 125.7,49.7 125.5,49 125.6,48.2 
				125.2,47.5 125.2,46.8 125,46 124.6,45.4 124.5,44.7 124,44.1 124,43.3 123.7,42.6 123.4,42 123.1,41.3 122.7,40.7 122.7,39.9 
				122.3,39.2 121.8,38.7 121.6,38 121.3,37.3 120.3,37.2 120,36.5 119.7,35.8 119.2,35.2 119.5,34.1 119.2,33.5 119,32.7 
				118.7,32.1 118.3,31.4 117.9,30.8 117.3,30.4 117,29.7 116.7,29 116.2,28.5 115.9,27.8 115.2,27.4 115,26.6 114.4,26.1 
				114.1,25.5 113.5,25 113,24.5 112.5,24 111.9,23.5 111.5,22.9 111.2,22.2 110.6,21.7 110,21.3 109.6,20.7 109,20.3 108.6,19.6 
				108,19.1 107.5,18.6 107,18.1 106.5,17.5 105.8,17.2 105.4,16.6 104.8,16.1 104.1,15.8 103.6,15.3 103,14.9 102.5,14.4 
				101.9,13.9 101.2,13.6 100.7,13 100,12.8 99.5,12.3 98.8,11.9 98.3,11.4 97.7,11 97.1,10.6 96.4,10.3 95.7,10 95,9.8 94.3,9.5 
				93.7,9.2 93.1,8.7 92.5,8.3 91.8,8 91.2,7.6 90.4,7.5 89.8,7.2 89.2,6.7 88.5,6.4 87.7,6.4 87.1,6 86.5,5.7 85.7,5.6 85.1,5.1 
				84.3,5.2 83.6,5 83,4.6 82.2,4.5 81.6,4 80.9,4 80.1,3.8 79.4,3.5 78.7,3.5 78,3.3 77.3,3.1 76.6,3.1 75.9,2.8 75.1,2.9 
				74.4,2.7 73.7,2.7 72.9,2.6 72.2,2.4 71.5,2.5 70.8,2.4 70,2.3 69.3,2.3 68.6,2.1 67.8,2.1 67.1,2 66.4,1.9 65.7,2.1 64.9,2.1 
				64.2,2 63.5,2.2 62.7,1.8 			"/>
		</defs>
		<clipPath id="SVGID_2_">
			<use xlink:href="#SVGID_1_"  overflow="visible"/>
		</clipPath>
		<rect x="0.7" clip-path="url(#SVGID_2_)" fill="#DB1F26" width="128.7" height="128.8"/>
	</g>
</g>
<g>
	<g>
		<defs>
			<rect id="SVGID_3_" x="2" y="1.8" width="126.6" height="126"/>
		</defs>
		<clipPath id="SVGID_4_">
			<use xlink:href="#SVGID_3_"  overflow="visible"/>
		</clipPath>
		<path clip-path="url(#SVGID_4_)" fill="#FFFFFF" d="M79.1,58.4c0,0.7-0.1,1.4-0.2,2.2c-0.1,0.4-0.1,0.9-0.2,1.3
			c-0.1,0.4-0.1,0.8-0.2,1.1c-0.1,0.8-0.3,1.5-0.4,2.2c-0.1,0.5-0.2,1-0.4,1.4c-0.1,0.4-0.2,0.8-0.4,1.2c-0.3,0.7-0.5,1.4-0.9,1.9
			c-0.3,0.6-0.8,1.1-1.2,1.6c-0.3,0.3-0.5,0.5-0.8,0.7c-0.3,0.2-0.6,0.4-0.9,0.5c-0.3,0.1-0.6,0.2-1,0.3c-0.3,0.1-0.7,0.1-1.1,0.1
			c-0.4,0-0.7,0-1.1-0.1c-0.3-0.1-0.6-0.2-0.9-0.3c-0.3-0.1-0.5-0.3-0.7-0.5c-0.2-0.2-0.4-0.4-0.6-0.6c-0.3-0.4-0.5-1-0.6-1.5
			c-0.1-0.6-0.2-1.2-0.1-1.9c0-0.7,0.1-1.5,0.2-2.3c0.1-0.8,0.3-1.7,0.4-2.5c0.2-0.9,0.3-1.7,0.5-2.5c0.2-0.8,0.4-1.6,0.7-2.2
			c0.3-0.7,0.6-1.3,0.9-1.9c0.4-0.6,0.8-1.1,1.3-1.5c0.3-0.2,0.5-0.5,0.8-0.6c0.3-0.2,0.6-0.3,0.9-0.5c0.3-0.1,0.6-0.2,1-0.3
			c0.3-0.1,0.7-0.1,1.1-0.1c0.4,0,0.7,0,1,0.1c0.3,0.1,0.6,0.2,0.9,0.3c0.3,0.1,0.5,0.3,0.7,0.5c0.2,0.2,0.4,0.4,0.6,0.6
			c0.3,0.4,0.5,0.9,0.6,1.5C79.1,57.1,79.1,57.7,79.1,58.4 M85.8,53.9c-0.3-0.8-0.7-1.5-1.2-2.2c-0.4-0.5-0.8-0.9-1.3-1.4
			c-0.5-0.4-1.1-0.8-1.8-1.2c-0.7-0.3-1.5-0.6-2.4-0.8c-0.9-0.2-1.9-0.3-2.9-0.3C75,48,74,48.1,73,48.3c-1,0.2-1.8,0.4-2.7,0.8
			c-0.8,0.3-1.6,0.7-2.3,1.1c-0.7,0.4-1.3,0.9-1.9,1.4c-0.8,0.7-1.5,1.4-2.1,2.2c-0.6,0.8-1.1,1.6-1.5,2.6c-0.4,0.9-0.8,2-1.1,3.1
			c-0.3,1.1-0.6,2.3-0.8,3.7c-0.2,1.4-0.4,2.6-0.5,3.7C60,68,60,69.1,60.1,70c0.1,0.9,0.3,1.8,0.6,2.6c0.3,0.8,0.7,1.6,1.3,2.3
			c0.4,0.5,0.8,1,1.4,1.4c0.5,0.4,1.2,0.8,1.9,1.2c0.7,0.3,1.5,0.6,2.4,0.8c0.9,0.2,1.9,0.3,3,0.3c1.1,0,2.2-0.1,3.1-0.3
			c1-0.2,1.9-0.5,2.7-0.9c0.8-0.3,1.6-0.8,2.3-1.2c0.7-0.4,1.3-0.9,1.8-1.4c0.8-0.7,1.5-1.5,2-2.3c0.6-0.8,1.1-1.7,1.5-2.6
			c0.4-0.9,0.8-2,1-3.1c0.3-1.1,0.5-2.3,0.8-3.7c0.2-1.3,0.4-2.5,0.5-3.6c0.1-1.1,0.1-2.1,0-3C86.3,55.5,86.1,54.7,85.8,53.9"/>
	</g>
	<g>
		<defs>
			<rect id="SVGID_5_" x="2" y="1.8" width="126.6" height="126"/>
		</defs>
		<clipPath id="SVGID_6_">
			<use xlink:href="#SVGID_5_"  overflow="visible"/>
		</clipPath>
		<path clip-path="url(#SVGID_6_)" fill="#FFFFFF" d="M16.4,96.1c0.9-0.8,1.7-1.6,2.3-2.6c0.7-0.9,1.2-1.9,1.7-2.9
			c0.5-1,0.9-2.2,1.2-3.5c0.3-1,0.5-2.1,0.7-3.3l1-5.1l3.8-20.9l4.1,0l2-6.9l-5,0l0.5-3.3c0-0.1,0.1-0.5,0.2-1
			c0.1-0.6,0.2-1.2,0.2-1.3c0.2-0.9,0.4-1.6,0.6-2.2c0.2-0.7,0.5-1.3,0.9-1.9c0.4-0.6,0.8-1.1,1.3-1.5c0.3-0.2,0.6-0.4,0.9-0.6
			c0.3-0.2,0.6-0.3,0.9-0.5c0,0,0,0,0.1,0l0.1,0c0.4-0.2,0.8-0.3,1.2-0.4c0.5-0.1,1-0.1,1.5-0.1h0c0.5,0,0.9,0,1.4,0.1
			c0.4,0.1,0.8,0.2,1.1,0.4c0,0,0.1,0,0.1,0.1l0.1,0.1l2.3-7.3l-0.1,0c-0.3-0.1-0.7-0.2-1.1-0.3c-1-0.2-2-0.3-3.2-0.3l-0.1,0
			c-1.1,0-2.3,0.1-3.4,0.3c-1,0.2-2,0.5-3,0.9c-0.9,0.4-1.7,0.8-2.5,1.3c-0.7,0.5-1.4,1-2,1.5c-0.9,0.8-1.6,1.6-2.3,2.5
			c-0.6,0.9-1.2,1.8-1.7,2.9c-0.3,0.7-0.6,1.4-0.9,2.3c-0.2,0.6-0.4,1.2-0.5,1.9c-0.2,0.9-0.4,2.1-0.6,3.2l-0.1,0.6
			c0,0.3-0.1,0.5-0.1,0.7L19.6,51l-3.3,0l-2,6.9l4.2,0c-0.3,1.6-5,27.4-5.1,27.6c-0.2,0.9-0.4,1.6-0.6,2.2c-0.3,0.7-0.6,1.3-0.9,1.9
			c0,0,0,0.1-0.1,0.1l0,0.1C11,91,9.6,92.1,8.4,92.7c1.1,2.2,2.4,4.2,3.7,6.2c0.7-0.3,1.5-0.8,2.2-1.2C15,97.2,15.7,96.7,16.4,96.1"
			/>
	</g>
	<g>
		<defs>
			<rect id="SVGID_7_" x="2" y="1.8" width="126.6" height="126"/>
		</defs>
		<clipPath id="SVGID_8_">
			<use xlink:href="#SVGID_7_"  overflow="visible"/>
		</clipPath>
		<path clip-path="url(#SVGID_8_)" fill="#FFFFFF" d="M51.3,58.4c0,0.7-0.1,1.4-0.2,2.2C51,61.1,51,61.5,50.9,62
			c-0.1,0.4-0.1,0.7-0.2,1.1c-0.1,0.8-0.3,1.5-0.4,2.2c-0.1,0.5-0.2,1-0.4,1.4c-0.1,0.4-0.2,0.8-0.4,1.2c-0.3,0.7-0.5,1.4-0.9,1.9
			c-0.3,0.6-0.8,1.1-1.2,1.6c-0.3,0.3-0.5,0.5-0.8,0.7c-0.3,0.2-0.6,0.4-0.9,0.5c-0.3,0.1-0.6,0.2-1,0.3c-0.3,0.1-0.7,0.1-1.1,0.1
			c-0.4,0-0.7,0-1.1-0.1c-0.3-0.1-0.6-0.2-0.9-0.3c-0.3-0.1-0.5-0.3-0.7-0.5c-0.2-0.2-0.4-0.4-0.6-0.6c-0.3-0.4-0.5-1-0.6-1.5
			c-0.1-0.6-0.2-1.2-0.1-1.9c0-0.7,0.1-1.5,0.2-2.3c0.1-0.8,0.3-1.7,0.4-2.5c0.2-0.9,0.3-1.7,0.5-2.5c0.2-0.8,0.4-1.6,0.7-2.2
			c0.3-0.7,0.6-1.3,0.9-1.9c0.4-0.6,0.8-1.1,1.3-1.5c0.3-0.2,0.5-0.5,0.8-0.6c0.3-0.2,0.6-0.3,0.9-0.5c0.3-0.1,0.6-0.2,1-0.3
			c0.3-0.1,0.7-0.1,1.1-0.1c0.4,0,0.7,0,1,0.1c0.3,0.1,0.6,0.2,0.9,0.3c0.3,0.1,0.5,0.3,0.7,0.5c0.2,0.2,0.4,0.4,0.6,0.6
			c0.3,0.4,0.5,0.9,0.6,1.5C51.3,57.1,51.3,57.7,51.3,58.4 M57.9,53.9c-0.3-0.8-0.7-1.5-1.2-2.2c-0.4-0.5-0.8-0.9-1.3-1.4
			c-0.5-0.4-1.1-0.8-1.8-1.2c-0.7-0.3-1.5-0.6-2.4-0.8c-0.9-0.2-1.9-0.3-2.9-0.3c-1.1,0-2.1,0.1-3.1,0.3c-1,0.2-1.8,0.5-2.7,0.8
			c-0.8,0.3-1.6,0.7-2.3,1.1c-0.7,0.4-1.3,0.9-1.9,1.4c-0.8,0.7-1.5,1.4-2.1,2.2c-0.6,0.8-1.1,1.6-1.5,2.6c-0.4,0.9-0.8,1.9-1.1,3.1
			c-0.3,1.1-0.6,2.3-0.8,3.7c-0.3,1.4-0.4,2.6-0.5,3.7c-0.1,1.1-0.1,2.2,0,3.1c0.1,1,0.3,1.8,0.6,2.6c0.3,0.8,0.7,1.6,1.3,2.3
			c0.4,0.5,0.8,1,1.4,1.4c0.5,0.4,1.2,0.8,1.9,1.2c0.7,0.3,1.5,0.6,2.4,0.8c0.9,0.2,1.9,0.3,3,0.3c1.1,0,2.2-0.1,3.1-0.3
			c1-0.2,1.9-0.5,2.7-0.9c0.8-0.3,1.6-0.8,2.3-1.2c0.7-0.5,1.3-0.9,1.8-1.4c0.8-0.7,1.5-1.5,2-2.3c0.6-0.8,1.1-1.7,1.5-2.6
			c0.4-0.9,0.8-2,1-3.1c0.3-1.1,0.5-2.3,0.8-3.7c0.2-1.3,0.4-2.5,0.5-3.6c0.1-1.1,0.1-2.1,0-3C58.4,55.5,58.2,54.7,57.9,53.9"/>
	</g>
	<g>
		<defs>
			<rect id="SVGID_9_" x="2" y="1.8" width="126.6" height="126"/>
		</defs>
		<clipPath id="SVGID_10_">
			<use xlink:href="#SVGID_9_"  overflow="visible"/>
		</clipPath>
		<path clip-path="url(#SVGID_10_)" fill="#FFFFFF" d="M106.7,58.4c0,0.7-0.1,1.4-0.2,2.2c-0.1,0.4-0.1,0.9-0.2,1.3
			c-0.1,0.4-0.1,0.8-0.2,1.2c-0.1,0.8-0.3,1.5-0.5,2.2c-0.1,0.5-0.2,1-0.4,1.4c-0.1,0.4-0.2,0.8-0.4,1.2c-0.3,0.7-0.6,1.4-0.9,2
			c-0.4,0.6-0.8,1.1-1.3,1.6c-0.3,0.2-0.5,0.5-0.8,0.7c-0.3,0.2-0.6,0.4-0.9,0.5c-0.3,0.1-0.7,0.2-1,0.3c-0.3,0.1-0.7,0.1-1.1,0.1
			c-0.4,0-0.7,0-1.1-0.1c-0.3-0.1-0.6-0.2-0.9-0.3c-0.3-0.1-0.5-0.3-0.7-0.5c-0.2-0.2-0.4-0.4-0.6-0.7c-0.3-0.4-0.5-1-0.6-1.6
			c-0.1-0.6-0.2-1.2-0.1-2c0-0.7,0.1-1.5,0.2-2.3c0.1-0.8,0.3-1.7,0.4-2.6c0.2-0.9,0.3-1.7,0.5-2.5c0.2-0.8,0.4-1.6,0.7-2.3
			c0.3-0.7,0.6-1.3,0.9-1.9c0.4-0.6,0.8-1.1,1.3-1.5c0.3-0.2,0.5-0.5,0.8-0.6c0.3-0.2,0.6-0.3,0.9-0.5c0.3-0.1,0.6-0.2,1-0.3
			c0.3-0.1,0.7-0.1,1.1-0.1c0.4,0,0.7,0,1.1,0.1c0.3,0.1,0.6,0.2,0.9,0.3c0.3,0.1,0.5,0.3,0.7,0.5c0.2,0.2,0.4,0.4,0.6,0.6
			c0.3,0.4,0.5,1,0.6,1.5C106.7,57.1,106.8,57.7,106.7,58.4 M113.3,36.2c-0.4,0.4-0.7,0.8-1.1,1.3c-0.2,0.3-0.3,0.5-0.5,0.8
			c-0.1,0.1-0.1,0.2-0.2,0.3c0,0,0,0.1,0,0.1c-0.1,0.2-0.1,0.3-0.2,0.4c-0.1,0.3-0.3,0.6-0.4,0.9c-0.4,0.9-0.7,2-1,3
			c-0.3,1.1-0.6,2.2-0.9,3.4c-0.3,1.2-0.5,2.3-0.7,3.4c-0.1,0.4-0.1,0.9-0.2,1.3c-0.3-0.5-0.7-0.9-1.1-1.3c-0.4-0.4-0.9-0.7-1.4-1
			c-0.5-0.3-1.1-0.5-1.7-0.6c-0.6-0.1-1.3-0.2-2-0.3c-0.7,0-1.4,0-2.1,0.1c-0.7,0.1-1.4,0.2-2,0.4c-0.6,0.2-1.3,0.4-1.8,0.7
			c-0.6,0.3-1.1,0.6-1.6,1c-0.9,0.7-1.6,1.5-2.2,2.5c-0.6,0.9-1.1,2-1.5,3.1c-0.4,1.1-0.8,2.2-1.1,3.4c-0.3,1.2-0.5,2.3-0.8,3.4
			c-0.2,1.1-0.5,2.3-0.7,3.5c-0.2,1.2-0.3,2.4-0.4,3.5c0,1.1,0,2.2,0.3,3.2c0.2,1,0.6,1.9,1.2,2.7c0.3,0.4,0.7,0.8,1.2,1.2
			c0.5,0.4,1,0.7,1.6,0.9c0.6,0.3,1.2,0.5,1.8,0.6c0.7,0.2,1.3,0.2,2.1,0.3c0.8,0,1.5,0,2.2-0.1c0.7-0.1,1.3-0.3,2-0.5
			c0.6-0.2,1.2-0.5,1.9-0.9c0.3-0.2,0.7-0.5,1-0.7c0.1-0.1,0.2-0.2,0.3-0.3c0,0,0,0,0,0c0.1-0.1,0.2-0.2,0.3-0.3
			c0,0,0.1-0.1,0.1-0.1l0,0c0.2-0.2,0.4-0.4,0.6-0.7c0.5-0.5,0.9-1.1,1.2-1.7c0.3,0.9,0.6,1.7,1.2,2.4c0.3,0.4,0.8,0.8,1.3,1.2
			c0.3,0.2,0.7,0.4,1,0.6c0.1,0.1,0.2,0.1,0.3,0.2c0.5,0.3,1.1,0.5,1.7,0.6c0.6,0.2,1.3,0.2,2.1,0.3c0.2,0,0.4,0,0.6,0l2-6.4
			c0,0-0.1,0-0.1,0c-0.3-0.1-0.5-0.1-0.8-0.3c-0.2-0.1-0.4-0.2-0.6-0.4c-0.2-0.2-0.3-0.3-0.5-0.6c-0.2-0.4-0.4-0.8-0.5-1.3
			c-0.1-0.4-0.1-0.8-0.1-1.2c0,0,0,0,0-0.1c0,0,0-0.3,0-0.5c0-0.1,0-0.3,0-0.5c0-0.4,0.1-0.8,0.2-1.3c0-0.1,0-0.2,0.1-0.3
			c0-0.2,0.1-0.4,0.1-0.4l1-5.6c0.7-4.3,1.6-9.6,1.7-10.2c0.2-0.9,0.4-1.8,0.6-2.7c0.2-0.8,0.4-1.6,0.7-2.4c0.3-0.7,0.6-1.4,0.9-2
			c0.4-0.6,0.8-1.1,1.3-1.6c0.3-0.3,0.6-0.5,0.9-0.7c0.3-0.2,0.6-0.4,0.9-0.5c0.3-0.1,0.7-0.2,1-0.3c-1-2.3-2.1-4.6-3.4-6.7
			C116.4,33.4,114.6,34.8,113.3,36.2"/>
	</g>
	<g>
		<defs>
			<rect id="SVGID_11_" x="2" y="1.8" width="126.6" height="126"/>
		</defs>
		<clipPath id="SVGID_12_">
			<use xlink:href="#SVGID_11_"  overflow="visible"/>
		</clipPath>
		<path clip-path="url(#SVGID_12_)" fill="#FFFFFF" d="M42,94.3v-4.5c0-1-0.6-1.3-1.2-1.3c-0.6,0-1.2,0.3-1.2,1.3v4.5h-1.8v-7.4h1.8
			v0.7c0.5-0.5,1.2-0.8,1.8-0.8c0.7,0,1.3,0.2,1.7,0.7c0.6,0.6,0.8,1.3,0.8,2.1v4.7H42z"/>
	</g>
	<g>
		<defs>
			<rect id="SVGID_13_" x="2" y="1.8" width="126.6" height="126"/>
		</defs>
		<clipPath id="SVGID_14_">
			<use xlink:href="#SVGID_13_"  overflow="visible"/>
		</clipPath>
		<path clip-path="url(#SVGID_14_)" fill="#FFFFFF" d="M51.6,89.1c-0.2-0.4-0.6-0.8-1.2-0.8c-0.6,0-1,0.3-1.2,0.8
			C49,89.4,49,89.6,49,89.9h2.8C51.8,89.6,51.7,89.4,51.6,89.1 M49,91.2c0,1,0.6,1.6,1.6,1.6c0.8,0,1.2-0.2,1.7-0.7l1.1,1.1
			c-0.8,0.8-1.5,1.2-2.8,1.2c-1.7,0-3.4-0.8-3.4-3.8c0-2.4,1.3-3.8,3.2-3.8c2.1,0,3.2,1.5,3.2,3.5v0.8H49z"/>
	</g>
	<g>
		<defs>
			<rect id="SVGID_15_" x="2" y="1.8" width="126.6" height="126"/>
		</defs>
		<clipPath id="SVGID_16_">
			<use xlink:href="#SVGID_15_"  overflow="visible"/>
		</clipPath>
		<path clip-path="url(#SVGID_16_)" fill="#FFFFFF" d="M59.3,94.3c-1.5,0-2.1-1.1-2.1-2.1v-3.7h-0.8v-1.4h0.8v-2.2H59v2.2h1.3v1.4
			H59v3.6c0,0.4,0.2,0.7,0.6,0.7h0.7v1.6H59.3z"/>
	</g>
</g>
<polygon fill="#FFFFFF" points="71.6,94.3 70.1,94.3 68.6,89.7 67,94.3 65.5,94.3 63.2,86.9 65.2,86.9 66.4,91.5 67.9,86.9 
	69.2,86.9 70.7,91.5 71.9,86.9 73.9,86.9 "/>
<g>
	<g>
		<defs>
			<rect id="SVGID_17_" x="2" y="1.8" width="126.6" height="126"/>
		</defs>
		<clipPath id="SVGID_18_">
			<use xlink:href="#SVGID_17_"  overflow="visible"/>
		</clipPath>
		<path clip-path="url(#SVGID_18_)" fill="#FFFFFF" d="M80.5,88.8c-0.2-0.2-0.5-0.3-0.9-0.3c-0.4,0-0.6,0.1-0.8,0.3
			c-0.4,0.4-0.4,1-0.4,1.8c0,0.8,0,1.4,0.4,1.8c0.2,0.2,0.5,0.3,0.8,0.3c0.4,0,0.7-0.1,0.9-0.3c0.4-0.4,0.4-1,0.4-1.8
			C80.9,89.8,80.9,89.2,80.5,88.8 M81.9,93.5c-0.5,0.5-1.2,0.9-2.3,0.9c-1.1,0-1.8-0.4-2.3-0.9c-0.7-0.7-0.8-1.5-0.8-2.9
			c0-1.3,0.2-2.2,0.8-2.9c0.5-0.5,1.2-0.9,2.3-0.9c1.1,0,1.8,0.4,2.3,0.9c0.7,0.7,0.8,1.5,0.8,2.9C82.8,91.9,82.6,92.8,81.9,93.5"/>
	</g>
	<g>
		<defs>
			<rect id="SVGID_19_" x="2" y="1.8" width="126.6" height="126"/>
		</defs>
		<clipPath id="SVGID_20_">
			<use xlink:href="#SVGID_19_"  overflow="visible"/>
		</clipPath>
		<path clip-path="url(#SVGID_20_)" fill="#FFFFFF" d="M89.9,88.9c-0.3-0.3-0.5-0.4-1-0.4c-0.6,0-1.2,0.4-1.2,1.4v4.5h-1.8v-7.4h1.8
			v0.7c0.4-0.4,1.1-0.8,1.9-0.8c0.7,0,1.2,0.2,1.7,0.7L89.9,88.9z"/>
	</g>
</g>
<polygon fill="#FFFFFF" points="98.6,94.3 96.8,91.2 96,92.1 96,94.3 94.2,94.3 94.2,84.2 96,84.2 96,89.9 98.5,86.9 100.7,86.9 
	98,89.9 100.9,94.3 "/>
<g>
	<g>
		<defs>
			<rect id="SVGID_21_" x="2" y="1.8" width="126.6" height="126"/>
		</defs>
		<clipPath id="SVGID_22_">
			<use xlink:href="#SVGID_21_"  overflow="visible"/>
		</clipPath>
		<path clip-path="url(#SVGID_22_)" fill="#DC1F26" d="M128.6,35.3c0,1.4-1.1,2.5-2.5,2.5s-2.5-1.1-2.5-2.5c0-1.4,1.1-2.5,2.5-2.5
			C127.5,32.8,128.6,34,128.6,35.3 M123.9,35.3c0,1.2,1,2.2,2.2,2.2c1.2,0,2.2-1,2.2-2.2c0-1.2-1-2.2-2.1-2.2
			C124.9,33.1,123.9,34.1,123.9,35.3 M126.3,34c0.6,0,0.9,0.3,0.9,0.7c0,0.3-0.2,0.5-0.5,0.7v0c0.1,0,0.2,0.1,0.3,0.2
			c0.1,0.1,0.1,0.2,0.1,0.6c0,0.3,0,0.4,0.2,0.5H127c-0.1-0.1-0.1-0.2-0.1-0.4c0-0.7-0.1-0.8-0.7-0.8h-0.6c-0.1,0-0.1,0-0.2,0
			c0,0.1,0,0.1,0,0.2v1h-0.3V34C125.1,34,126.3,34,126.3,34z M125.5,34.2c-0.1,0-0.1,0-0.2,0c0,0.1,0,0.1,0,0.2v0.7
			c0,0.1,0,0.1,0,0.2c0.1,0,0.1,0,0.2,0h0.6c0.5,0,0.8-0.1,0.8-0.5c0-0.3-0.2-0.5-0.7-0.5H125.5z"/>
	</g>
</g>
</svg>
