<?xml version="1.0" encoding="utf-8"?>
<!-- Generator: Adobe Illustrator 18.0.0, SVG Export Plug-In . SVG Version: 6.00 Build 0)  -->
<!DOCTYPE svg PUBLIC "-//W3C//DTD SVG 1.1//EN" "http://www.w3.org/Graphics/SVG/1.1/DTD/svg11.dtd">
<svg version="1.1" xmlns="http://www.w3.org/2000/svg" xmlns:xlink="http://www.w3.org/1999/xlink" x="0px" y="0px"
	 viewBox="0 0 960 560" enable-background="new 0 0 960 560" xml:space="preserve">
<g id="Layer_1">
</g>
<g id="Layer_8" display="none">
	<rect x="2" y="0" display="inline" fill="#FF6678" width="960" height="560"/>
</g>
<g id="Layer_2">
</g>
<g id="Layer_3">
</g>
<g id="Layer_4">
</g>
<g id="Layer_5">
	<g>
		<defs>
			<rect id="SVGID_31_" x="-982" y="0" width="960" height="560"/>
		</defs>
		<clipPath id="SVGID_2_">
			<use xlink:href="#SVGID_31_"  overflow="visible"/>
		</clipPath>
		<path clip-path="url(#SVGID_2_)" fill="#BA4A62" d="M-3.7,529.5h-44.7c-31.5,0-57.2-25.7-57.2-57.2v-92.6
			c0-31.5,25.7-57.2,57.2-57.2h44.7c31.5,0,57.2,25.7,57.2,57.2v92.6C53.5,503.8,27.8,529.5-3.7,529.5z"/>
		<path clip-path="url(#SVGID_2_)" fill="#BA4A62" d="M153.2,529.5h-44.7c-31.5,0-57.2-25.7-57.2-57.2v-92.6
			c0-31.5,25.7-57.2,57.2-57.2h44.7c31.5,0,57.2,25.7,57.2,57.2v92.6C210.4,503.8,184.7,529.5,153.2,529.5z"/>
		<path clip-path="url(#SVGID_2_)" fill="#913A4A" d="M89.2,777H11.1c-55,0-100-45-100-100V515.2c0-55,45-100,100-100h78.1
			c55,0,100,45,100,100V677C189.2,732,144.2,777,89.2,777z"/>
	</g>
</g>
<g id="Layer_6">
	<path opacity="0.18" d="M674,368.3c10,44.7-83.2,39-187,39s-204,16.4-188-39S383.2,295,487,295S664,323.6,674,368.3z"/>
	<ellipse fill="#C6C6C6" cx="483" cy="333.5" rx="39" ry="8.5"/>
	<ellipse fill="#E0E0E0" cx="483" cy="330.5" rx="39" ry="8.5"/>
	<rect x="473" y="295" fill="#C6C6C6" width="18.9" height="35.8"/>
	<rect x="339.6" y="52.5" fill="#E0E0E0" width="288.7" height="258.4"/>
	<polygon fill="#E0E0E0" points="645.5,392.3 322.4,392.3 339.6,340 628.3,340 	"/>
	<polygon fill="#D1D1D1" points="630.1,383.3 337.8,383.3 349.6,349 618.3,349 	"/>
	<polygon fill="#C6C6C6" points="645.5,392 322.4,392 322.5,395.5 645.3,395.5 	"/>
	<rect x="370.9" y="65.1" fill="#C6C6C6" width="226.1" height="225.2"/>
	<rect x="370.9" y="69.1" fill="#FFFFFF" width="226.1" height="225.2"/>
	<g>
		<defs>
			<rect id="SVGID_35_" x="370.9" y="69.1" width="226.1" height="225.2"/>
		</defs>
		<clipPath id="SVGID_3_">
			<use xlink:href="#SVGID_35_"  overflow="visible"/>
		</clipPath>
		<g clip-path="url(#SVGID_3_)">
			<polyline fill="none" stroke="#9E43A5" stroke-width="10" stroke-linecap="round" stroke-miterlimit="10" points="480,253 
				480,308 465,308 			"/>
			<polyline fill="none" stroke="#9E43A5" stroke-width="10" stroke-linecap="round" stroke-miterlimit="10" points="498,253 
				498,308 513,308 			"/>
			<g>
				<defs>
					<path id="SVGID_37_" d="M551.6,194.6c0,35.5-28.8,64.4-64.4,64.4s-64.4-28.8-64.4-64.4s28.8-97.2,64.4-97.2
						S551.6,159,551.6,194.6z"/>
				</defs>
				<clipPath id="SVGID_4_">
					<use xlink:href="#SVGID_37_"  overflow="visible"/>
				</clipPath>
				<rect x="367.3" y="76.7" clip-path="url(#SVGID_4_)" fill="#A468B5" width="252.8" height="235.7"/>
				<path clip-path="url(#SVGID_4_)" fill="#9E43A5" d="M365,81v235h253V81H365z M504.3,250.1c-35.5,0-64.4-28.8-64.4-64.4
					S464.5,53.5,500,53.5c35.5,0,117.6,105.5,117.6,141S539.9,250.1,504.3,250.1z"/>
			</g>
			<path fill="none" stroke="#A468B5" stroke-width="10" stroke-linecap="round" stroke-miterlimit="10" d="M542.5,210.9
				c0,0,25,0,30.7-24.1c5.7-24.1,4.8-51.4,4.8-51.4"/>
			<path fill="none" stroke="#9E43A5" stroke-width="10" stroke-linecap="round" stroke-miterlimit="10" d="M430.9,199.2
				c0,0-25,0-30.7,24.1s-4.8,51.4-4.8,51.4"/>
			<g>
				<ellipse cx="458.8" cy="165.1" rx="4.8" ry="8.4"/>
				<ellipse fill="#FFFFFF" cx="457" cy="162" rx="1.2" ry="0.9"/>
			</g>
			<g>
				<ellipse cx="515.3" cy="165.1" rx="4.8" ry="8.4"/>
				<ellipse fill="#FFFFFF" cx="513.5" cy="162" rx="1.2" ry="0.9"/>
			</g>
			<path d="M525.9,197.4c3.9,7.9-16.5,22.7-37.2,22.7s-40.7-14.8-37.9-22.7c2.8-7.9,16.8-3.9,37.5-3.9S521.9,189.5,525.9,197.4z"/>
		</g>
	</g>
	<g>
		<g>
			<polyline fill="none" stroke="#FEBC59" stroke-width="10" stroke-linecap="round" stroke-miterlimit="10" points="467,531 
				467,615 444,615 			"/>
			<polyline fill="none" stroke="#FEBC59" stroke-width="10" stroke-linecap="round" stroke-miterlimit="10" points="494,531 
				494,615 517,615 			"/>
			<path fill="none" stroke="#FFC659" stroke-width="10" stroke-linecap="round" stroke-miterlimit="10" d="M567.7,402.3
				c0,0,38,0,46.7,36.7c8.7,36.7,7.3,78.2,7.3,78.2"/>
			<path fill="none" stroke="#FEBC59" stroke-width="10" stroke-linecap="round" stroke-miterlimit="10" d="M397.7,409.3
				c0,0-38,0-46.7,36.7s-7.3,78.2-7.3,78.2"/>
			<g>
				<defs>
					<path id="SVGID_39_" d="M481,543.8L481,543.8c-46.8,0-85-38.2-85-85V342c0-46.7,38.2-85,85-85h0c46.7,0,85,38.2,85,85v116.8
						C566,505.6,527.8,543.8,481,543.8z"/>
				</defs>
				<clipPath id="SVGID_5_">
					<use xlink:href="#SVGID_39_"  overflow="visible"/>
				</clipPath>
				<rect x="370.7" y="229" clip-path="url(#SVGID_5_)" fill="#FFC659" width="224" height="325.7"/>
				<path clip-path="url(#SVGID_5_)" fill="#FEBC59" d="M460.8,244c0,0-47.7,39.2-48.7,119.1s5.1,151.3,69.1,151.1
					c64-0.2,113.8-2,113.8-2V576H360V248L460.8,244z"/>
			</g>
			<g>
				<path fill="#385457" d="M588.9,255.5L588.9,255.5c-2.9-0.7-4.7-3.7-4-6.6l10.2-63.2c1.4-5.7,7.3-9.3,13-7.9h0
					c5.7,1.4,9.3,7.3,7.9,13l-20.4,60.7C594.8,254.4,591.8,256.2,588.9,255.5z"/>
				<circle fill="#385457" cx="584.1" cy="273" r="7.9"/>
			</g>
		</g>
	</g>
</g>
<g id="Layer_7">
</g>
</svg>
