<?xml version="1.0" encoding="utf-8"?>
<!-- Generator: Adobe Illustrator 18.0.0, SVG Export Plug-In . SVG Version: 6.00 Build 0)  -->
<!DOCTYPE svg PUBLIC "-//W3C//DTD SVG 1.1//EN" "http://www.w3.org/Graphics/SVG/1.1/DTD/svg11.dtd">
<svg version="1.1" xmlns="http://www.w3.org/2000/svg" xmlns:xlink="http://www.w3.org/1999/xlink" x="0px" y="0px"
	 viewBox="0 0 960 560" enable-background="new 0 0 960 560" xml:space="preserve">
<g id="Layer_1">
</g>
<g id="Layer_8" display="none">
	<rect x="-2" y="0" display="inline" fill="#FF6678" width="960" height="560"/>
</g>
<g id="Layer_2">
</g>
<g id="Layer_3">
</g>
<g id="Layer_4">
</g>
<g id="Layer_5">
	<rect x="2" opacity="0.5" width="958" height="560"/>
	<rect x="216.9" y="69.1" fill="#FFFFFF" width="536.1" height="225.2"/>
	<g>
		<defs>
			<rect id="SVGID_27_" x="216.9" y="69.1" width="536.1" height="225.2"/>
		</defs>
		<clipPath id="SVGID_2_">
			<use xlink:href="#SVGID_27_"  overflow="visible"/>
		</clipPath>
		<g clip-path="url(#SVGID_2_)">
			<polyline fill="none" stroke="#9E43A5" stroke-width="10" stroke-linecap="round" stroke-miterlimit="10" points="476,253 
				476,308 461,308 			"/>
			<polyline fill="none" stroke="#9E43A5" stroke-width="10" stroke-linecap="round" stroke-miterlimit="10" points="494,253 
				494,308 509,308 			"/>
			<g>
				<defs>
					<path id="SVGID_29_" d="M547.6,194.6c0,35.5-28.8,64.4-64.4,64.4s-64.4-28.8-64.4-64.4s28.8-97.2,64.4-97.2
						S547.6,159,547.6,194.6z"/>
				</defs>
				<clipPath id="SVGID_3_">
					<use xlink:href="#SVGID_29_"  overflow="visible"/>
				</clipPath>
				<rect x="363.3" y="76.7" clip-path="url(#SVGID_3_)" fill="#A468B5" width="252.8" height="235.7"/>
				<path clip-path="url(#SVGID_3_)" fill="#9E43A5" d="M361,81v235h253V81H361z M500.3,250.1c-35.5,0-64.4-28.8-64.4-64.4
					S460.5,53.5,496,53.5c35.5,0,117.6,105.5,117.6,141S535.9,250.1,500.3,250.1z"/>
			</g>
			<path fill="none" stroke="#A468B5" stroke-width="10" stroke-linecap="round" stroke-miterlimit="10" d="M538.5,210.9
				c0,0,25,0,30.7-24.1c5.7-24.1,4.8-51.4,4.8-51.4"/>
			<path fill="none" stroke="#9E43A5" stroke-width="10" stroke-linecap="round" stroke-miterlimit="10" d="M426.9,199.2
				c0,0-25,0-30.7,24.1s-4.8,51.4-4.8,51.4"/>
			<g>
				<ellipse cx="454.8" cy="165.1" rx="4.8" ry="8.4"/>
				<ellipse fill="#FFFFFF" cx="453" cy="162" rx="1.2" ry="0.9"/>
			</g>
			<g>
				<ellipse cx="511.3" cy="165.1" rx="4.8" ry="8.4"/>
				<ellipse fill="#FFFFFF" cx="509.5" cy="162" rx="1.2" ry="0.9"/>
			</g>
			<path d="M521.9,197.4c3.9,7.9-16.5,22.7-37.2,22.7s-40.7-14.8-37.9-22.7c2.8-7.9,16.8-3.9,37.5-3.9S517.9,189.5,521.9,197.4z"/>
		</g>
	</g>
	<g>
		<path fill="#315454" d="M385.4,106.5L385.4,106.5c-2.9,0.9-6-0.8-6.8-3.6L355,43.3c-1.7-5.7,1.5-11.7,7.2-13.4l0,0
			c5.7-1.7,11.7,1.5,13.4,7.2l13.5,62.6C390,102.5,388.3,105.6,385.4,106.5z"/>
		<circle fill="#315454" cx="390.3" cy="124" r="7.9"/>
	</g>
	<g>
		<defs>
			<rect id="SVGID_31_" x="-2" y="0" width="960" height="560"/>
		</defs>
		<clipPath id="SVGID_4_">
			<use xlink:href="#SVGID_31_"  overflow="visible"/>
		</clipPath>
		<path clip-path="url(#SVGID_4_)" fill="#BA4A62" d="M501.4,529.5h-44.7c-31.5,0-57.2-25.7-57.2-57.2v-92.6
			c0-31.5,25.7-57.2,57.2-57.2h44.7c31.5,0,57.2,25.7,57.2,57.2v92.6C558.6,503.8,532.9,529.5,501.4,529.5z"/>
		<path clip-path="url(#SVGID_4_)" fill="#BA4A62" d="M342.4,529.5h-44.7c-31.5,0-57.2-25.7-57.2-57.2v-92.6
			c0-31.5,25.7-57.2,57.2-57.2h44.7c31.5,0,57.2,25.7,57.2,57.2v92.6C399.6,503.8,373.8,529.5,342.4,529.5z"/>
		<path clip-path="url(#SVGID_4_)" fill="#BA4A62" d="M658.3,529.5h-44.7c-31.5,0-57.2-25.7-57.2-57.2v-92.6
			c0-31.5,25.7-57.2,57.2-57.2h44.7c31.5,0,57.2,25.7,57.2,57.2v92.6C715.5,503.8,689.7,529.5,658.3,529.5z"/>
		<path clip-path="url(#SVGID_4_)" fill="#BA4A62" d="M976.3,529.5h-44.7c-31.5,0-57.2-25.7-57.2-57.2v-92.6
			c0-31.5,25.7-57.2,57.2-57.2h44.7c31.5,0,57.2,25.7,57.2,57.2v92.6C1033.5,503.8,1007.8,529.5,976.3,529.5z"/>
		<path clip-path="url(#SVGID_4_)" fill="#BA4A62" d="M817.3,529.5h-44.7c-31.5,0-57.2-25.7-57.2-57.2v-92.6
			c0-31.5,25.7-57.2,57.2-57.2h44.7c31.5,0,57.2,25.7,57.2,57.2v92.6C874.5,503.8,848.8,529.5,817.3,529.5z"/>
		<path clip-path="url(#SVGID_4_)" fill="#BA4A62" d="M26.5,529.5h-44.7c-31.5,0-57.2-25.7-57.2-57.2v-92.6
			c0-31.5,25.7-57.2,57.2-57.2h44.7c31.5,0,57.2,25.7,57.2,57.2v92.6C83.7,503.8,57.9,529.5,26.5,529.5z"/>
		<path clip-path="url(#SVGID_4_)" fill="#BA4A62" d="M183.3,529.5h-44.7c-31.5,0-57.2-25.7-57.2-57.2v-92.6
			c0-31.5,25.7-57.2,57.2-57.2h44.7c31.5,0,57.2,25.7,57.2,57.2v92.6C240.5,503.8,214.8,529.5,183.3,529.5z"/>
		<g clip-path="url(#SVGID_4_)">
			<path fill="none" stroke="#FFC659" stroke-width="10" stroke-linecap="round" stroke-miterlimit="10" d="M563.7,492.3
				c0,0,38,0,46.7,36.7c8.7,36.7,7.3,78.2,7.3,78.2"/>
			<path fill="none" stroke="#FEBC59" stroke-width="10" stroke-linecap="round" stroke-miterlimit="10" d="M393.7,499.3
				c0,0-38,0-46.7,36.7s-7.3,78.2-7.3,78.2"/>
			<g>
				<defs>
					<path id="SVGID_33_" d="M477,633.8L477,633.8c-46.8,0-85-38.2-85-85V432c0-46.7,38.2-85,85-85h0c46.7,0,85,38.2,85,85v116.8
						C562,595.6,523.8,633.8,477,633.8z"/>
				</defs>
				<clipPath id="SVGID_5_">
					<use xlink:href="#SVGID_33_"  overflow="visible"/>
				</clipPath>
				<rect x="366.7" y="319" clip-path="url(#SVGID_5_)" fill="#FFC659" width="224" height="325.7"/>
				<path clip-path="url(#SVGID_5_)" fill="#FEBC59" d="M456.8,334c0,0-47.7,39.2-48.7,119.1s5.1,151.3,69.1,151.1
					c64-0.2,113.8-2,113.8-2V666H356V338L456.8,334z"/>
			</g>
			<g>
				<path fill="#385457" d="M584.9,345.5L584.9,345.5c-2.9-0.7-4.7-3.7-4-6.6l10.2-63.2c1.4-5.7,7.3-9.3,13-7.9h0
					c5.7,1.4,9.3,7.3,7.9,13l-20.4,60.7C590.8,344.4,587.8,346.2,584.9,345.5z"/>
				<circle fill="#385457" cx="580.1" cy="363" r="7.9"/>
			</g>
		</g>
		<path clip-path="url(#SVGID_4_)" fill="#913A4A" d="M517.7,777h-78.1c-55,0-100-45-100-100V515.2c0-55,45-100,100-100h78.1
			c55,0,100,45,100,100V677C617.7,732,572.7,777,517.7,777z"/>
		<path clip-path="url(#SVGID_4_)" fill="#913A4A" d="M239.7,777h-78.1c-55,0-100-45-100-100V515.2c0-55,45-100,100-100h78.1
			c55,0,100,45,100,100V677C339.7,732,294.7,777,239.7,777z"/>
		<path clip-path="url(#SVGID_4_)" fill="#913A4A" d="M-37.5,777h-78.1c-55,0-100-45-100-100V515.2c0-55,45-100,100-100h78.1
			c55,0,100,45,100,100V677C62.5,732,17.5,777-37.5,777z"/>
		<path clip-path="url(#SVGID_4_)" fill="#913A4A" d="M792,777H714c-55,0-100-45-100-100V515.2c0-55,45-100,100-100H792
			c55,0,100,45,100,100V677C892,732,847,777,792,777z"/>
		<path clip-path="url(#SVGID_4_)" fill="#913A4A" d="M1069.2,777h-78.1c-55,0-100-45-100-100V515.2c0-55,45-100,100-100h78.1
			c55,0,100,45,100,100V677C1169.2,732,1124.2,777,1069.2,777z"/>
	</g>
</g>
<g id="Layer_6">
</g>
<g id="Layer_7">
</g>
</svg>
