<?xml version="1.0" encoding="utf-8"?>
<!-- Generator: Adobe Illustrator 18.0.0, SVG Export Plug-In . SVG Version: 6.00 Build 0)  -->
<!DOCTYPE svg PUBLIC "-//W3C//DTD SVG 1.1//EN" "http://www.w3.org/Graphics/SVG/1.1/DTD/svg11.dtd">
<svg version="1.1" xmlns="http://www.w3.org/2000/svg" xmlns:xlink="http://www.w3.org/1999/xlink" x="0px" y="0px"
	 viewBox="0 0 960 560" enable-background="new 0 0 960 560" xml:space="preserve">
<g id="Layer_1">
</g>
<g id="Layer_8" display="none">
	<rect x="0" y="-1" display="inline" fill="#FF6678" width="960" height="560"/>
</g>
<g id="Layer_2">
</g>
<g id="Layer_3">
</g>
<g id="Layer_4">
</g>
<g id="Layer_5">
</g>
<g id="Layer_6">
</g>
<g id="Layer_7">
	<ellipse opacity="0.18" cx="223.7" cy="472.3" rx="82" ry="23.7"/>
	<polyline fill="none" stroke="#9E43A5" stroke-width="10" stroke-linecap="round" stroke-miterlimit="10" points="211,388 211,472 
		188,472 	"/>
	<polyline fill="none" stroke="#9E43A5" stroke-width="10" stroke-linecap="round" stroke-miterlimit="10" points="238,388 238,472 
		261,472 	"/>
	<ellipse opacity="0.18" cx="777.7" cy="472.3" rx="82" ry="23.7"/>
	<polyline fill="none" stroke="#FEBC59" stroke-width="10" stroke-linecap="round" stroke-miterlimit="10" points="765,388 765,472 
		742,472 	"/>
	<polyline fill="none" stroke="#FEBC59" stroke-width="10" stroke-linecap="round" stroke-miterlimit="10" points="792,388 792,472 
		815,472 	"/>
	<g>
		<defs>
			<path id="SVGID_41_" d="M319.5,299.3c0,54.1-43.9,98-98,98s-98-43.9-98-98s43.9-148,98-148S319.5,245.2,319.5,299.3z"/>
		</defs>
		<clipPath id="SVGID_2_">
			<use xlink:href="#SVGID_41_"  overflow="visible"/>
		</clipPath>
		<rect x="39" y="120" clip-path="url(#SVGID_2_)" fill="#A468B5" width="384.7" height="358.7"/>
		<path clip-path="url(#SVGID_2_)" fill="#9E43A5" d="M35,126v358h385V126H35z M247.6,383.8c-54.1,0-98-43.9-98-98
			S186.9,84.7,241,84.7c54.1,0,179,160.6,179,214.7C420,353.4,301.6,383.8,247.6,383.8z"/>
	</g>
	<path fill="none" stroke="#A468B5" stroke-width="10" stroke-linecap="round" stroke-miterlimit="10" d="M305.7,299.3
		c0,0,38,0,46.7,36.7c8.7,36.7,7.3,78.2,7.3,78.2"/>
	<path fill="none" stroke="#9E43A5" stroke-width="10" stroke-linecap="round" stroke-miterlimit="10" d="M135.7,306.3
		c0,0-38,0-46.7,36.7s-7.3,78.2-7.3,78.2"/>
	<path fill="none" stroke="#FFC659" stroke-width="10" stroke-linecap="round" stroke-miterlimit="10" d="M865.7,259.3
		c0,0,38,0,46.7,36.7c8.7,36.7,7.3,78.2,7.3,78.2"/>
	<path fill="none" stroke="#FEBC59" stroke-width="10" stroke-linecap="round" stroke-miterlimit="10" d="M695.7,266.3
		c0,0-38,0-46.7,36.7c-8.7,36.7-7.3,78.2-7.3,78.2"/>
	<g>
		<ellipse cx="178.2" cy="254.5" rx="7.3" ry="12.8"/>
		<ellipse fill="#FFFFFF" cx="175.5" cy="249.7" rx="1.9" ry="1.3"/>
	</g>
	<g>
		<ellipse cx="264.2" cy="254.5" rx="7.3" ry="12.8"/>
		<ellipse fill="#FFFFFF" cx="261.5" cy="249.7" rx="1.9" ry="1.3"/>
	</g>
	<g>
		<defs>
			<path id="SVGID_43_" d="M779,400.8L779,400.8c-46.8,0-85-38.2-85-85V199c0-46.7,38.2-85,85-85h0c46.8,0,85,38.2,85,85v116.8
				C864,362.6,825.8,400.8,779,400.8z"/>
		</defs>
		<clipPath id="SVGID_3_">
			<use xlink:href="#SVGID_43_"  overflow="visible"/>
		</clipPath>
		<rect x="668.7" y="86" clip-path="url(#SVGID_3_)" fill="#FFC659" width="224" height="325.7"/>
		<path clip-path="url(#SVGID_3_)" fill="#FEBC59" d="M758.8,101c0,0-47.7,39.2-48.7,119.1s5.1,151.3,69.1,151.1s113.8-2,113.8-2
			V433H658V105L758.8,101z"/>
	</g>
	<g>
		<ellipse cx="734.2" cy="189.5" rx="7.3" ry="12.8"/>
		<ellipse fill="#FFFFFF" cx="731.5" cy="184.7" rx="1.9" ry="1.3"/>
	</g>
	<g>
		<ellipse cx="820.2" cy="189.5" rx="7.3" ry="12.8"/>
		<ellipse fill="#FFFFFF" cx="817.5" cy="184.7" rx="1.9" ry="1.3"/>
	</g>
	<path d="M830,244.7c0,7-21.9,12.7-48.9,12.7s-48.9-5.7-48.9-12.7c0-7,21.9,0.3,48.9,0.3S830,237.7,830,244.7z"/>
	<path d="M280.3,303.7c6,12-25.1,34.5-56.7,34.5s-61.9-22.5-57.6-34.5c4.3-12,25.6-6,57.1-6S274.3,291.7,280.3,303.7z"/>
	<g>
		<path fill="#315454" d="M148.4,140.5L148.4,140.5c-2.9,0.9-6-0.8-6.8-3.6L118,77.3c-1.7-5.7,1.5-11.7,7.2-13.4l0,0
			c5.7-1.7,11.7,1.5,13.4,7.2l13.5,62.6C153,136.5,151.3,139.6,148.4,140.5z"/>
		<circle fill="#315454" cx="153.3" cy="158" r="7.9"/>
	</g>
	<g>
		<path fill="#385457" d="M886.9,112.5L886.9,112.5c-2.9-0.7-4.7-3.7-4-6.6l10.2-63.2c1.4-5.7,7.3-9.3,13-7.9l0,0
			c5.7,1.4,9.3,7.3,7.9,13l-20.4,60.7C892.8,111.4,889.8,113.2,886.9,112.5z"/>
		<circle fill="#385457" cx="882.1" cy="130" r="7.9"/>
	</g>
	<g>
		<g enable-background="new    ">
			<defs>
				<polygon id="SVGID_45_" enable-background="new    " points="389.6,499.1 417.3,434.3 582.8,434.3 613.9,498.8 				"/>
			</defs>
			<clipPath id="SVGID_4_">
				<use xlink:href="#SVGID_45_"  overflow="visible"/>
			</clipPath>
			<g clip-path="url(#SVGID_4_)">
				<path fill="#38595B" d="M548.5,445.8l-2-7.1l23.1,0l2.8,7.1l3,7.6l3.3,8.3l3.5,8.9l3.9,9.8l4.3,10.7l-29.6,0l-29.6,0l-1.6-10.8
					l1.6,10.8l-29.6,0l-0.3-10.8l0.3,10.8l-29.7,0l1-10.8l-1,10.8l-29.7,0l2.4-10.8l-2.4,10.8l-29.7,0l3.7-10.8l3.4-9.7l3.1-9.1
					l2.9-8.3l2.7-7.7l2.5-7.1l23.2,0l-1.6,7.1l1.6-7.1l23.2,0l-0.7,7.1l0.7-7.1l23.2,0l0.2,7.1l-0.2-7.1l23.1,0l1.1,7.1l-1.1-7.1
					l23.1,0L548.5,445.8 M582.8,434.3l-165.5,0.1l-27.7,64.8l224.2-0.3L582.8,434.3"/>
				<polyline fill="#578A91" points="454,438.7 430.8,438.7 428.3,445.9 452.4,445.9 454,438.7 				"/>
				<polyline fill="#2E494E" points="477.1,438.7 454,438.7 452.4,445.9 476.5,445.9 477.1,438.7 				"/>
				<polyline fill="#578A91" points="500.3,438.7 477.1,438.7 476.5,445.9 500.5,445.8 500.3,438.7 				"/>
				<polyline fill="#2E494E" points="523.4,438.7 500.3,438.7 500.5,445.8 524.5,445.8 523.4,438.7 				"/>
				<polyline fill="#578A91" points="546.5,438.7 523.4,438.7 524.5,445.8 548.5,445.8 546.5,438.7 				"/>
				<polyline fill="#2E494E" points="569.6,438.7 546.5,438.7 548.5,445.8 572.5,445.8 569.6,438.7 				"/>
				<polyline fill="#578A91" points="572.5,445.8 548.5,445.8 550.6,453.4 550.6,453.5 550.6,453.4 575.5,453.4 572.5,445.8 				"/>
				<polyline fill="#2E494E" points="452.4,445.9 428.3,445.9 425.7,453.6 425.7,453.5 450.7,453.5 452.4,445.9 				"/>
				<polyline fill="#578A91" points="476.5,445.9 452.4,445.9 450.7,453.5 450.7,453.6 450.7,453.5 475.7,453.5 476.5,445.9 				"/>
				<polyline fill="#2E494E" points="500.5,445.8 476.5,445.9 475.7,453.5 475.7,453.5 475.7,453.5 500.7,453.5 500.5,445.8 				"/>
				<polyline fill="#578A91" points="524.5,445.8 500.5,445.8 500.7,453.5 500.7,453.5 500.7,453.5 525.7,453.5 524.5,445.8 				"/>
				<polyline fill="#2E494E" points="548.5,445.8 524.5,445.8 525.7,453.5 525.7,453.5 525.7,453.5 550.6,453.4 548.5,445.8 				"/>
				<polyline fill="#578A91" points="450.7,453.5 425.7,453.5 425.7,453.6 422.8,461.9 448.9,461.8 450.7,453.6 450.7,453.5 				"/>
				<polyline fill="#2E494E" points="475.7,453.5 450.7,453.5 450.7,453.6 448.9,461.8 474.9,461.8 475.7,453.5 475.7,453.5 				"/>
				<polyline fill="#578A91" points="500.7,453.5 475.7,453.5 475.7,453.5 474.9,461.8 500.9,461.8 500.7,453.5 500.7,453.5 				"/>
				<polyline fill="#2E494E" points="525.7,453.5 500.7,453.5 500.7,453.5 500.9,461.8 526.9,461.8 525.7,453.5 525.7,453.5 				"/>
				<polyline fill="#578A91" points="550.6,453.4 525.7,453.5 525.7,453.5 526.9,461.8 552.9,461.8 550.6,453.5 550.6,453.4 				"/>
				<polyline fill="#2E494E" points="575.5,453.4 550.6,453.4 550.6,453.5 552.9,461.8 578.8,461.7 575.5,453.4 				"/>
				<polyline fill="#578A91" points="578.8,461.7 552.9,461.8 555.3,470.7 555.4,470.8 555.3,470.7 582.4,470.6 578.8,461.7 				"/>
				<polyline fill="#2E494E" points="448.9,461.8 422.8,461.9 419.7,470.9 419.7,470.8 446.9,470.8 448.9,461.8 				"/>
				<polyline fill="#578A91" points="474.9,461.8 448.9,461.8 446.9,470.8 446.9,470.9 446.9,470.8 474.1,470.7 474.9,461.8 				"/>
				<polyline fill="#2E494E" points="500.9,461.8 474.9,461.8 474.1,470.7 474,470.9 474.1,470.7 501.2,470.7 500.9,461.8 				"/>
				<polyline fill="#578A91" points="526.9,461.8 500.9,461.8 501.2,470.7 501.2,470.8 501.2,470.7 528.3,470.7 526.9,461.8 				"/>
				<polyline fill="#2E494E" points="552.9,461.8 526.9,461.8 528.3,470.7 528.3,470.8 528.3,470.7 555.3,470.7 552.9,461.8 				"/>
				<polyline fill="#578A91" points="446.9,470.8 419.7,470.8 419.7,470.9 416.3,480.6 444.7,480.6 446.9,470.9 446.9,470.8 				"/>
				<polyline fill="#2E494E" points="474.1,470.7 446.9,470.8 446.9,470.9 444.7,480.6 473.1,480.6 474,470.9 474.1,470.7 				"/>
				<polyline fill="#578A91" points="501.2,470.7 474.1,470.7 474,470.9 473.1,480.6 501.4,480.5 501.2,470.8 501.2,470.7 				"/>
				<polyline fill="#2E494E" points="528.3,470.7 501.2,470.7 501.2,470.8 501.4,480.5 529.8,480.5 528.3,470.8 528.3,470.7 				"/>
				<polyline fill="#578A91" points="555.3,470.7 528.3,470.7 528.3,470.8 529.8,480.5 558,480.5 555.4,470.8 555.3,470.7 				"/>
				<polyline fill="#2E494E" points="582.4,470.6 555.3,470.7 555.4,470.8 558,480.5 586.3,480.4 582.4,470.6 				"/>
				<polyline fill="#578A91" points="586.3,480.4 558,480.5 561,491.2 590.6,491.2 586.3,480.4 				"/>
				<polyline fill="#2E494E" points="444.7,480.6 416.3,480.6 412.6,491.4 442.4,491.4 444.7,480.6 				"/>
				<polyline fill="#578A91" points="473.1,480.6 444.7,480.6 442.4,491.4 472.1,491.3 473.1,480.6 				"/>
				<polyline fill="#2E494E" points="501.4,480.5 473.1,480.6 472.1,491.3 501.7,491.3 501.4,480.5 				"/>
				<polyline fill="#578A91" points="529.8,480.5 501.4,480.5 501.7,491.3 531.4,491.3 529.8,480.5 				"/>
				<polyline fill="#2E494E" points="558,480.5 529.8,480.5 531.4,491.3 561,491.2 558,480.5 				"/>
			</g>
		</g>
	</g>
	<g>
		<path fill="#A33B3B" d="M529,476.1c0,1.7-6.5,3.1-13.8,3.1c-7.4,0-13.6-1.4-13.6-3.1c0-0.7-0.2-2-0.2-2s9.6-3.1,13.8-3.1
			c4.4,0,13.8,3.1,13.8,3.1S529,475.4,529,476.1z"/>
		<ellipse fill="#EFC4C0" cx="515.2" cy="474.1" rx="13.8" ry="3.1"/>
	</g>
	<g>
		<path fill="#3B9BA3" d="M501,467.1c0,1.6-6,2.9-12.9,2.9c-6.9,0-12.7-1.3-12.7-2.9c0-0.7-0.1-1.9-0.1-1.9s8.9-2.9,12.9-2.9
			c4.1,0,12.8,2.9,12.8,2.9S501,466.4,501,467.1z"/>
		<ellipse fill="#C0E0EF" cx="488.2" cy="465.2" rx="13" ry="2.9"/>
	</g>
	<g>
		<path fill="#3B9BA3" d="M475,457c0,1.6-5.6,2.8-12.1,2.8s-12-1.3-12-2.8c0-0.7-0.1-1.8-0.1-1.8s8.4-2.8,12.1-2.8
			c3.9,0,12.1,2.8,12.1,2.8S475,456.4,475,457z"/>
		<ellipse fill="#C0E0EF" cx="462.9" cy="455.2" rx="12.1" ry="2.8"/>
	</g>
	<g>
		<path fill="#A33B3B" d="M551,458c0,1.6-5.6,2.8-12.1,2.8c-6.5,0-12-1.3-12-2.8c0-0.7-0.1-1.8-0.1-1.8s8.4-2.8,12.1-2.8
			c3.9,0,12.1,2.8,12.1,2.8S551,457.4,551,458z"/>
		<ellipse fill="#EFC4C0" cx="538.9" cy="456.2" rx="12.1" ry="2.8"/>
	</g>
	<g>
		<path fill="#A33B3B" d="M523,441.9c0,1.4-5.1,2.6-11.1,2.6s-11-1.2-11-2.6c0-0.6-0.1-1.6-0.1-1.6s7.7-2.6,11.1-2.6
			c3.5,0,11.1,2.6,11.1,2.6S523,441.4,523,441.9z"/>
		<ellipse fill="#EFC4C0" cx="511.9" cy="440.3" rx="11.1" ry="2.6"/>
	</g>
</g>
</svg>
