<?xml version="1.0" encoding="utf-8"?>
<!-- Generator: Adobe Illustrator 18.0.0, SVG Export Plug-In . SVG Version: 6.00 Build 0)  -->
<!DOCTYPE svg PUBLIC "-//W3C//DTD SVG 1.1//EN" "http://www.w3.org/Graphics/SVG/1.1/DTD/svg11.dtd">
<svg version="1.1" xmlns="http://www.w3.org/2000/svg" xmlns:xlink="http://www.w3.org/1999/xlink" x="0px" y="0px"
	 viewBox="0 0 960 560" enable-background="new 0 0 960 560" xml:space="preserve">
<g id="Layer_1">
</g>
<g id="Layer_8" display="none">
	<rect x="0" y="0" display="inline" fill="#FF6678" width="960" height="560"/>
</g>
<g id="Layer_2">
</g>
<g id="Layer_3">
</g>
<g id="Layer_4">
	<g>
		<path fill="#FFFFFF" d="M180.2,58.5c60.3,0,112.3,45.4,119.2,106.8c7.3,65.9-40.1,125.3-106,132.6c-4.5,0.5-9,0.8-13.5,0.8
			c-60.3,0-112.3-45.4-119.2-106.8c-7.3-65.9,40.1-125.3,106-132.6C171.3,58.7,175.8,58.5,180.2,58.5 M180,42.5v16V42.5l0.2-0.5h0
			c-5.1,0-10.2,0.5-15.2,1.1c-36.1,4-68.5,22-91.2,50.4c-22.7,28.4-33,64-28.9,100.1c3.7,33.5,19.6,64.3,44.8,86.6
			c25,22.2,57,34.4,90.3,34.4c5.1,0,10.2-0.3,15.2-0.8c36.1-4,68.5-21.9,91.2-50.3c22.7-28.4,33-63.9,28.9-100
			c-3.7-33.5-19.7-64.2-44.9-86.6C245.4,54.7,213,42.5,180,42.5L180,42.5z"/>
	</g>
	<circle fill="#FF5365" cx="180" cy="178.5" r="120.1"/>
	<ellipse opacity="0.18" cx="685.7" cy="483.3" rx="82" ry="13.2"/>
	<path opacity="0.18" d="M530.7,485.3c0,5.8-37.1,5.5-82.8,5.5s-82.8,0.3-82.8-5.5c0-5.8,37.1-10.5,82.8-10.5
		S530.7,479.5,530.7,485.3z"/>
	<polyline fill="none" stroke="#FEBC59" stroke-width="10" stroke-linecap="round" stroke-miterlimit="10" points="673,395 673,479 
		650,479 	"/>
	<polyline fill="none" stroke="#FEBC59" stroke-width="10" stroke-linecap="round" stroke-miterlimit="10" points="700,395 700,479 
		723,479 	"/>
	<path fill="none" stroke="#FFC659" stroke-width="10" stroke-linecap="round" stroke-miterlimit="10" d="M773.7,266.3
		c0,0,38,0,46.7,36.7c8.7,36.7,7.3,78.2,7.3,78.2"/>
	<path fill="none" stroke="#FEBC59" stroke-width="10" stroke-linecap="round" stroke-miterlimit="10" d="M603.7,273.3
		c0,0-38,0-46.7,36.7c-8.7,36.7-7.3,78.2-7.3,78.2"/>
	<g>
		<defs>
			<path id="SVGID_15_" d="M687,407.8L687,407.8c-46.8,0-85-38.2-85-85V206c0-46.7,38.2-85,85-85h0c46.8,0,85,38.2,85,85v116.8
				C772,369.6,733.8,407.8,687,407.8z"/>
		</defs>
		<clipPath id="SVGID_2_">
			<use xlink:href="#SVGID_15_"  overflow="visible"/>
		</clipPath>
		<rect x="576.7" y="93" clip-path="url(#SVGID_2_)" fill="#FFC659" width="224" height="325.7"/>
		<path clip-path="url(#SVGID_2_)" fill="#FEBC59" d="M666.8,108c0,0-47.7,39.2-48.7,119.1s5.1,151.3,69.1,151.1s113.8-2,113.8-2
			V440H566V112L666.8,108z"/>
	</g>
	<g>
		<ellipse cx="642.2" cy="196.5" rx="7.3" ry="12.8"/>
		<ellipse fill="#FFFFFF" cx="639.5" cy="191.7" rx="1.9" ry="1.3"/>
	</g>
	<g>
		<ellipse cx="728.2" cy="196.5" rx="7.3" ry="12.8"/>
		<ellipse fill="#FFFFFF" cx="725.5" cy="191.7" rx="1.9" ry="1.3"/>
	</g>
	<path d="M738,251.7c0,7-21.9,12.7-48.9,12.7s-48.9-5.7-48.9-12.7s21.9,0.3,48.9,0.3S738,244.7,738,251.7z"/>
	<g>
		<path fill="#315454" d="M69.4,106.5L69.4,106.5c-2.9,0.9-6-0.8-6.8-3.6L39,43.3c-1.7-5.7,1.5-11.7,7.2-13.4l0,0
			c5.7-1.7,11.7,1.5,13.4,7.2l13.5,62.6C74,102.5,72.3,105.6,69.4,106.5z"/>
		<circle fill="#315454" cx="74.3" cy="124" r="7.9"/>
	</g>
	<g>
		<path fill="#385457" d="M794.9,119.5L794.9,119.5c-2.9-0.7-4.7-3.7-4-6.6l10.2-63.2c1.4-5.7,7.3-9.3,13-7.9l0,0
			c5.7,1.4,9.3,7.3,7.9,13l-20.4,60.7C800.8,118.4,797.8,120.2,794.9,119.5z"/>
		<circle fill="#385457" cx="790.1" cy="137" r="7.9"/>
	</g>
	<g>
		<path fill="#2E494E" d="M448.1,363.9L448.1,363.9c-2.1-0.4-3.5-2.3-3.1-4.4l4.1-44.3c0.7-4,4.6-6.8,8.6-6.1l0,0
			c4,0.7,6.8,4.6,6.1,8.6l-11.3,43C452.2,362.9,450.2,364.3,448.1,363.9z"/>
		<circle fill="#2E494E" cx="445.7" cy="376.2" r="5.4"/>
	</g>
	<g>
		<defs>
			<path id="SVGID_17_" d="M299.1,163.2c7.4,66-40.2,125.5-106.2,132.8c-66,7.4-125.5-40.2-132.8-106.2S88.9,34.1,154.9,26.7
				S291.8,97.2,299.1,163.2z"/>
		</defs>
		<clipPath id="SVGID_3_">
			<use xlink:href="#SVGID_17_"  overflow="visible"/>
		</clipPath>
		<g clip-path="url(#SVGID_3_)">
			<polyline fill="none" stroke="#9E43A5" stroke-width="10" stroke-linecap="round" stroke-miterlimit="10" points="179.5,283.6 
				188.8,367.1 166,369.6 			"/>
			<polyline fill="none" stroke="#9E43A5" stroke-width="10" stroke-linecap="round" stroke-miterlimit="10" points="206.3,280.6 
				215.6,364.1 238.5,361.5 			"/>
			<g>
				<defs>
					<path id="SVGID_19_" d="M277.5,183.4c6,53.8-32.7,102.2-86.5,108.2S88.8,258.9,82.8,205.1s27.2-151.9,81-157.9
						S271.5,129.7,277.5,183.4z"/>
				</defs>
				<clipPath id="SVGID_4_">
					<use xlink:href="#SVGID_19_"  overflow="visible"/>
				</clipPath>
				
					<rect x="-2.5" y="13.9" transform="matrix(0.9938 -0.1108 0.1108 0.9938 -20.2424 22.2342)" clip-path="url(#SVGID_4_)" fill="#A468B5" width="384.7" height="358.7"/>
				<path clip-path="url(#SVGID_4_)" fill="#9E43A5" d="M-24.5,42.7l39.7,355.8l382.6-42.7L358.2,0L-24.5,42.7z M215.4,275.3
					c-53.8,6-102.2-32.7-108.2-86.5c-6-53.8,14.8-204.1,68.5-210.1c53.8-6,195.7,139.7,201.7,193.5
					C383.4,226.1,269.1,269.3,215.4,275.3z"/>
			</g>
			<path fill="none" stroke="#A468B5" stroke-width="10" stroke-linecap="round" stroke-miterlimit="10" d="M266.5,209.7
				c0,0,37.8-4.2,42.3-41.6s-1.4-78.6-1.4-78.6"/>
			<path fill="none" stroke="#9E43A5" stroke-width="10" stroke-linecap="round" stroke-miterlimit="10" d="M95.7,210.8
				c0,0-37.8,4.2-42.3,41.6s1.4,78.6,1.4,78.6"/>
			<g>
				<ellipse transform="matrix(0.9938 -0.1108 0.1108 0.9938 -16.3142 15.5894)" cx="132.1" cy="154.5" rx="7.3" ry="12.8"/>
				
					<ellipse transform="matrix(0.9938 -0.1108 0.1108 0.9938 -15.8378 15.2066)" fill="#FFFFFF" cx="128.9" cy="150.1" rx="1.9" ry="1.3"/>
			</g>
			<g>
				<ellipse transform="matrix(0.9938 -0.1108 0.1108 0.9938 -14.7313 25.0031)" cx="217.5" cy="145" rx="7.3" ry="12.8"/>
				
					<ellipse transform="matrix(0.9938 -0.1108 0.1108 0.9938 -14.255 24.6203)" fill="#FFFFFF" cx="214.3" cy="140.5" rx="1.9" ry="1.3"/>
			</g>
			<path d="M239.1,192.1c7.3,11.3-21.1,37.1-52.5,40.6c-31.4,3.5-64-15.5-61.1-27.9c2.9-12.4,24.8-8.8,56.1-12.3
				C213,188.9,231.8,180.8,239.1,192.1z"/>
		</g>
		<g clip-path="url(#SVGID_3_)">
			<rect x="224.3" y="265.8" fill="#5E9599" width="8.3" height="43.3"/>
			<path fill="#2E494E" d="M228.5,265.8L228.5,265.8c-11.8,0-21.5-9.7-21.5-21.5v-29.8c0-11.8,9.7-21.5,21.5-21.5h0
				c11.8,0,21.5,9.7,21.5,21.5v29.8C250,256.1,240.3,265.8,228.5,265.8z"/>
			<path fill="#70B1BA" d="M241.6,226H252v-9h-10.4c-1.9,0-3.5-1.6-3.5-3.5c0-1.9,1.6-3.5,3.5-3.5H252c-0.7-12-10.1-20-21.4-20h-4.1
				c-11.4,0-20.7,9-21.4,20h12.1c1.9,0,3.5,1.6,3.5,3.5c0,1.9-1.6,3.5-3.5,3.5H205v9h12.2c1.9,0,3.5,1.6,3.5,3.5s-1.6,3.5-3.5,3.5
				H205v9h12.2c1.9,0,3.5,1.6,3.5,3.5s-1.6,3.5-3.5,3.5h-12.1c0.6,11,9.9,20,21.4,20h4.1c11.4,0,20.8-9,21.4-20h-10.4
				c-1.9,0-3.5-1.6-3.5-3.5s1.6-3.5,3.5-3.5H252v-9h-10.4c-1.9,0-3.5-1.6-3.5-3.5S239.6,226,241.6,226z"/>
			<g>
				<defs>
					<path id="SVGID_21_" d="M241.6,226H252v-9h-10.4c-1.9,0-3.5-1.6-3.5-3.5c0-1.9,1.6-3.5,3.5-3.5H252c-0.7-12-10.1-20-21.4-20
						h-4.1c-11.4,0-20.7,9-21.4,20h12.1c1.9,0,3.5,1.6,3.5,3.5c0,1.9-1.6,3.5-3.5,3.5H205v9h12.2c1.9,0,3.5,1.6,3.5,3.5
						s-1.6,3.5-3.5,3.5H205v9h12.2c1.9,0,3.5,1.6,3.5,3.5s-1.6,3.5-3.5,3.5h-12.1c0.6,11,9.9,20,21.4,20h4.1c11.4,0,20.8-9,21.4-20
						h-10.4c-1.9,0-3.5-1.6-3.5-3.5s1.6-3.5,3.5-3.5H252v-9h-10.4c-1.9,0-3.5-1.6-3.5-3.5S239.6,226,241.6,226z"/>
				</defs>
				<clipPath id="SVGID_5_">
					<use xlink:href="#SVGID_21_"  overflow="visible"/>
				</clipPath>
				<path clip-path="url(#SVGID_5_)" fill="#84D2D8" d="M240.6,224H255v-9h-13.4c-1.9,0-3.5-1.6-3.5-3.5c0-1.9,1.6-3.5,3.5-3.5H255
					c-0.7-12-10.1-20-21.4-20h-4.1c-11.4,0-20.7,9-21.4,20h9.1c1.9,0,3.5,1.6,3.5,3.5c0,1.9-1.6,3.5-3.5,3.5H208v9h9.2
					c1.9,0,3.5,1.6,3.5,3.5s-1.6,3.5-3.5,3.5H208v9h9.2c1.9,0,3.5,1.6,3.5,3.5s-1.6,3.5-3.5,3.5h-9.1c0.6,11,9.9,20,21.4,20h4.1
					c11.4,0,20.8-9,21.4-20h-13.4c-1.9,0-3.5-1.6-3.5-3.5s1.6-3.5,3.5-3.5H255v-9h-14.4c-1.9,0-3.5-1.6-3.5-3.5S238.6,224,240.6,224
					z"/>
			</g>
		</g>
	</g>
	<g>
		<circle fill="#3E868E" cx="429" cy="438.6" r="23.5"/>
		<g>
			<polygon fill="#8F8DAF" points="413.7,395 393.7,270.3 395.7,273.3 419,398.3 			"/>
			<circle fill="#8F8DAF" cx="394.7" cy="272.3" r="4.2"/>
		</g>
		<path fill="#91E5F2" d="M516.2,485H391.8c-4.9,0-8.8-3.9-8.8-8.8v-73.1c0-4.9,3.9-8.8,8.8-8.8h124.4c4.9,0,8.8,3.9,8.8,8.8v73.1
			C525,481.1,521.1,485,516.2,485z"/>
		<circle fill="#245F66" cx="429" cy="441.6" r="31.1"/>
		<circle fill="#C0E0EF" cx="431" cy="438.6" r="31.1"/>
		<g>
			<defs>
				<circle id="SVGID_23_" cx="431" cy="438.6" r="23.5"/>
			</defs>
			<use xlink:href="#SVGID_23_"  overflow="visible" fill="#245F66"/>
			<clipPath id="SVGID_6_">
				<use xlink:href="#SVGID_23_"  overflow="visible"/>
			</clipPath>
			<circle clip-path="url(#SVGID_6_)" fill="#245F66" cx="431" cy="441.6" r="23.5"/>
		</g>
		<g>
			<defs>
				<circle id="SVGID_25_" cx="431" cy="438.6" r="23.5"/>
			</defs>
			<clipPath id="SVGID_8_">
				<use xlink:href="#SVGID_25_"  overflow="visible"/>
			</clipPath>
			<circle clip-path="url(#SVGID_8_)" fill="#8F8DAF" cx="429" cy="441.6" r="23.5"/>
		</g>
		<circle fill="#8F8DAF" cx="504" cy="415.2" r="7.8"/>
		<circle fill="#8F8DAF" cx="476" cy="415.2" r="7.8"/>
	</g>
</g>
<g id="Layer_5">
	<g>
		<defs>
			<rect id="SVGID_31_" x="978" y="0" width="960" height="560"/>
		</defs>
		<clipPath id="SVGID_10_">
			<use xlink:href="#SVGID_31_"  overflow="visible"/>
		</clipPath>
		<path clip-path="url(#SVGID_10_)" fill="#BA4A62" d="M1006.5,529.5h-44.7c-31.5,0-57.2-25.7-57.2-57.2v-92.6
			c0-31.5,25.7-57.2,57.2-57.2h44.7c31.5,0,57.2,25.7,57.2,57.2v92.6C1063.7,503.8,1037.9,529.5,1006.5,529.5z"/>
		<path clip-path="url(#SVGID_10_)" fill="#BA4A62" d="M847.4,529.5h-44.7c-31.5,0-57.2-25.7-57.2-57.2v-92.6
			c0-31.5,25.7-57.2,57.2-57.2h44.7c31.5,0,57.2,25.7,57.2,57.2v92.6C904.6,503.8,878.9,529.5,847.4,529.5z"/>
		<path clip-path="url(#SVGID_10_)" fill="#913A4A" d="M942.5,777h-78.1c-55,0-100-45-100-100V515.2c0-55,45-100,100-100h78.1
			c55,0,100,45,100,100V677C1042.5,732,997.5,777,942.5,777z"/>
	</g>
</g>
<g id="Layer_6">
</g>
<g id="Layer_7">
</g>
</svg>
